<?xml version="1.0" encoding="UTF-8"?>
<svg version="1.1" xmlns="http://www.w3.org/2000/svg" width="64" height="64">
<path d="M0 0 C9.06466544 7.76971323 9.77836018 17.36028188 10.8515625 28.62890625 C11.36600162 33.73900148 12.36125534 38.32540275 14.01953125 43.19921875 C14.95663567 46.3732821 14.96736475 48.96329836 14.625 52.25 C13.965 52.91 13.305 53.57 12.625 54.25 C11.635 54.229375 10.645 54.20875 9.625 54.1875 C8.635 54.208125 7.645 54.22875 6.625 54.25 C5.965 55.24 5.305 56.23 4.625 57.25 C1.21949626 58.51490139 -0.31489212 58.26967167 -3.8125 57.125 C-8.26812787 56.03063526 -9.46815299 57.08876549 -13.375 59.25 C-16.4375 59.6875 -16.4375 59.6875 -19.375 59.25 C-20.138125 58.59 -20.90125 57.93 -21.6875 57.25 C-25.12175555 54.69427494 -27.15202763 55.01405549 -31.2890625 55.40234375 C-33.375 55.25 -33.375 55.25 -35.16015625 54.015625 C-36.71699102 51.75295839 -36.59190034 50.75057285 -36.1875 48.0625 C-36.09082031 47.34707031 -35.99414062 46.63164063 -35.89453125 45.89453125 C-35.47499997 43.75902243 -34.94550111 41.64529745 -34.3828125 39.54296875 C-33.01859841 34.20047391 -32.67002618 28.79976442 -32.25195312 23.31640625 C-31.54464193 15.45314488 -29.47145481 8.47900033 -24.375 2.25 C-16.80691299 -3.28460569 -8.41555554 -4.36362139 0 0 Z " fill="#B3E5E0" transform="translate(43.375,3.75)"/>
<path d="M0 0 C6.04250532 2.07837851 9.02614235 5.98247905 11.94726562 11.46069336 C13.69391939 15.67380696 13.86791211 19.79806091 14.0625 24.3125 C14.54371529 31.54977485 15.42996561 37.84283536 18.1953125 44.625 C19.08065777 47.23805788 19.21887882 49.25925653 19 52 C18 53 18 53 14.6875 53.4375 C11.55898801 53.91473064 9.65898859 54.40460685 7 56 C7.020625 54.96875 7.04125 53.9375 7.0625 52.875 C7.00723339 49.44847031 6.65449285 46.35427586 6 43 C6.99 43 7.98 43 9 43 C9.66 45.31 10.32 47.62 11 50 C12.32 50.33 13.64 50.66 15 51 C14.01 44.565 14.01 44.565 13 38 C12.34 38 11.68 38 11 38 C10.37176705 33.33312664 9.89634543 28.69768217 9.5625 24 C9.08606598 18.01810617 7.89923985 12.69771954 6 7 C5.34 7 4.68 7 4 7 C3.505 6.01 3.505 6.01 3 5 C-1.59531129 3.97453624 -6.25905454 3.40649587 -10.75 4.9375 C-11.4925 5.618125 -12.235 6.29875 -13 7 C-13.598125 7.515625 -14.19625 8.03125 -14.8125 8.5625 C-19.79312884 13.38246339 -20.82096255 17.32149682 -21.02734375 24.16796875 C-21.00982846 25.98205266 -20.97497283 27.79610234 -20.91796875 29.609375 C-21.00299215 32.08719988 -21.48041539 33.76403756 -22.375 36.0625 C-24.34224191 41.58196546 -25.16829037 47.21717185 -26 53 C-25.34 53.33 -24.68 53.66 -24 54 C-25.65 53.67 -27.3 53.34 -29 53 C-29.28479461 48.72808079 -28.92084955 45.45790287 -27.625 41.375 C-25.67818465 34.89462852 -25.31371613 28.34111571 -24.99853516 21.61279297 C-24.52066472 14.57565991 -22.49318255 9.44629057 -17.41772461 4.43896484 C-11.76465413 -0.40848936 -7.29427705 -0.83785615 0 0 Z " fill="#D1F1ED" transform="translate(38,3)"/>
<path d="M0 0 C9.06466544 7.76971323 9.77836018 17.36028188 10.8515625 28.62890625 C11.36600162 33.73900148 12.36125534 38.32540275 14.01953125 43.19921875 C14.95663567 46.3732821 14.96736475 48.96329836 14.625 52.25 C13.965 52.91 13.305 53.57 12.625 54.25 C11.635 54.229375 10.645 54.20875 9.625 54.1875 C8.635 54.208125 7.645 54.22875 6.625 54.25 C5.965 55.24 5.305 56.23 4.625 57.25 C1.21949626 58.51490139 -0.31489212 58.26967167 -3.8125 57.125 C-8.26812787 56.03063526 -9.46815299 57.08876549 -13.375 59.25 C-16.4375 59.6875 -16.4375 59.6875 -19.375 59.25 C-20.138125 58.59 -20.90125 57.93 -21.6875 57.25 C-25.12175555 54.69427494 -27.15202763 55.01405549 -31.2890625 55.40234375 C-33.375 55.25 -33.375 55.25 -35.16015625 54.015625 C-36.71699102 51.75295839 -36.59190034 50.75057285 -36.1875 48.0625 C-36.09082031 47.34707031 -35.99414062 46.63164063 -35.89453125 45.89453125 C-35.47499997 43.75902243 -34.94550111 41.64529745 -34.3828125 39.54296875 C-33.01859841 34.20047391 -32.67002618 28.79976442 -32.25195312 23.31640625 C-31.54464193 15.45314488 -29.47145481 8.47900033 -24.375 2.25 C-16.80691299 -3.28460569 -8.41555554 -4.36362139 0 0 Z M-27.375 9.25 C-29.08078375 12.176188 -29.67077002 14.47865412 -29.90234375 17.84765625 C-29.9708252 18.72663574 -30.03930664 19.60561523 -30.10986328 20.51123047 C-30.1767334 21.43564941 -30.24360352 22.36006836 -30.3125 23.3125 C-30.87237549 30.16776046 -31.69715477 36.4927434 -33.7734375 43.078125 C-34.65524261 46.26178499 -34.66024308 48.96970453 -34.375 52.25 C-32.38516107 54.23983893 -28.51957383 53.62391574 -25.8203125 53.7734375 C-22.96675464 54.32956219 -22.33755473 55.21773704 -20.375 57.25 C-18.42797966 57.68473633 -18.42797966 57.68473633 -16.375 57.5625 C-15.694375 57.55863281 -15.01375 57.55476563 -14.3125 57.55078125 C-12.05308891 57.33908293 -12.05308891 57.33908293 -9.375 55.25 C-6.25 55.0625 -6.25 55.0625 -3.375 55.25 C-2.88 55.745 -2.88 55.745 -2.375 56.25 C0.04083753 56.58374277 0.04083753 56.58374277 2.625 56.25 C3.07875 55.775625 3.5325 55.30125 4 54.8125 C6.49894742 52.40966594 9.2753022 52.62218864 12.625 52.25 C12.955 51.92 13.285 51.59 13.625 51.25 C13.27534403 47.14154238 12.43262789 43.55870529 11.12890625 39.65234375 C9.50501871 34.33447781 9.11116996 29.27463372 8.8125 23.75 C8.13105358 14.81121082 6.81484757 8.14143133 0.0625 1.77734375 C-10.30658524 -5.57573353 -20.77680788 0.45241051 -27.375 9.25 Z " fill="#80D6CE" transform="translate(43.375,3.75)"/>
<path d="M0 0 C4.18772055 3.58947476 6.91668381 6.99135712 8.625 12.25 C8.8203125 15.58203125 8.8203125 15.58203125 8.75 19.0625 C8.73195312 20.22394531 8.71390625 21.38539062 8.6953125 22.58203125 C8.67210937 23.46246094 8.64890625 24.34289062 8.625 25.25 C8.295 25.25 7.965 25.25 7.625 25.25 C7.61082031 24.48816406 7.59664062 23.72632812 7.58203125 22.94140625 C7.21539876 15.00430833 6.04042744 8.4929498 0.125 2.80859375 C-4.81924518 -0.60246001 -10.59259914 -0.61473971 -16.375 0.25 C-22.08342647 3.05231845 -25.86575742 7.43593347 -28.375 13.25 C-28.82534461 15.65947137 -28.82534461 15.65947137 -29.0078125 18.234375 C-29.09160156 19.16894531 -29.17539062 20.10351562 -29.26171875 21.06640625 C-29.34035156 22.03449219 -29.41898438 23.00257812 -29.5 24 C-29.58636719 24.98355469 -29.67273438 25.96710937 -29.76171875 26.98046875 C-29.97340638 29.40311603 -30.17756279 31.82615667 -30.375 34.25 C-30.705 34.25 -31.035 34.25 -31.375 34.25 C-31.45674796 31.41607074 -31.51584985 28.58455181 -31.5625 25.75 C-31.58763672 24.95851563 -31.61277344 24.16703125 -31.63867188 23.3515625 C-31.73762914 15.30303822 -29.55753243 8.5842063 -24.375 2.25 C-16.80691299 -3.28460569 -8.41555554 -4.36362139 0 0 Z " fill="#89DAD2" transform="translate(43.375,3.75)"/>
<path d="M0 0 C0.99 0 1.98 0 3 0 C3.66 2.31 4.32 4.62 5 7 C6.32 7.33 7.64 7.66 9 8 C9.33 7.01 9.66 6.02 10 5 C9.8125 7.375 9.8125 7.375 9 10 C6.11090151 11.59660706 4.30941204 12 1 12 C0.67 8.04 0.34 4.08 0 0 Z " fill="#C6ECE9" transform="translate(44,46)"/>
<path d="M0 0 C0.33 0 0.66 0 1 0 C1.55353075 16.70842825 1.55353075 16.70842825 -2 25 C-3.02451301 21.76607394 -2.95041862 19.35474612 -2.44140625 16.015625 C-2.30283203 15.08105469 -2.16425781 14.14648438 -2.02148438 13.18359375 C-1.87001953 12.21550781 -1.71855469 11.24742188 -1.5625 10.25 C-1.34110352 8.77466797 -1.34110352 8.77466797 -1.11523438 7.26953125 C-0.75041022 4.84521588 -0.37843254 2.42222202 0 0 Z " fill="#CDF0EC" transform="translate(16,19)"/>
<path d="M0 0 C0.33 0 0.66 0 1 0 C1.33774332 2.22850277 1.6700187 4.45783467 2 6.6875 C2.185625 7.92886719 2.37125 9.17023437 2.5625 10.44921875 C2.92100411 13.35886371 3.08942256 16.07700022 3 19 C0.43238452 16.38521048 0.0043655 15.05471424 -0.29296875 11.328125 C-0.27316751 9.96843965 -0.23759202 8.6089066 -0.1875 7.25 C-0.17396484 6.55261719 -0.16042969 5.85523438 -0.14648438 5.13671875 C-0.1112945 3.42414459 -0.05749155 1.71197059 0 0 Z " fill="#D9F4F1" transform="translate(50,24)"/>
<path d="M0 0 C1.98 0.495 1.98 0.495 4 1 C3.67 2.32 3.34 3.64 3 5 C1.68 4.67 0.36 4.34 -1 4 C-0.67 2.68 -0.34 1.36 0 0 Z " fill="#3A918D" transform="translate(35,19)"/>
<path d="M0 0 C1.32 0 2.64 0 4 0 C3.67 1.65 3.34 3.3 3 5 C2.01 4.67 1.02 4.34 0 4 C0 2.68 0 1.36 0 0 Z " fill="#348D88" transform="translate(20,19)"/>
</svg>
