<?xml version="1.0" standalone="no"?>
<!DOCTYPE svg PUBLIC "-//W3C//DTD SVG 20010904//EN"
 "http://www.w3.org/TR/2001/REC-SVG-20010904/DTD/svg10.dtd">
<svg version="1.0" xmlns="http://www.w3.org/2000/svg"
 width="224.000000pt" height="224.000000pt" viewBox="0 0 224.000000 224.000000"
 preserveAspectRatio="xMidYMid meet">

<g transform="translate(0.000000,224.000000) scale(0.100000,-0.100000)"
fill="#000000" stroke="none">
<path d="M1118 2019 c-37 -4 -91 -15 -120 -24 -112 -36 -246 -128 -310 -212
-60 -81 -150 -272 -183 -394 -9 -34 -30 -73 -51 -98 -58 -68 -104 -51 -124 47
-14 65 -46 112 -91 136 -32 17 -40 18 -68 6 -39 -16 -65 -62 -57 -101 3 -16 1
-29 -4 -29 -5 0 -16 -14 -25 -30 -30 -57 12 -88 74 -55 39 20 45 8 16 -27 -29
-34 -31 -47 -11 -74 11 -14 27 -19 67 -19 l52 0 16 -48 c18 -54 50 -83 99 -93
18 -3 35 -10 38 -15 10 -17 -36 -303 -67 -419 -48 -179 -50 -192 -43 -234 15
-92 90 -111 200 -50 90 50 121 46 154 -23 14 -28 34 -61 45 -74 32 -35 94 -59
158 -59 49 0 69 6 133 41 87 48 106 47 155 -8 62 -69 87 -83 143 -83 35 0 60
7 81 21 67 45 86 45 148 -7 30 -25 84 -32 117 -14 44 24 90 147 110 300 11 83
15 306 8 425 l-3 40 37 -3 c56 -5 99 21 135 82 47 77 54 82 113 67 64 -16 90
-4 90 43 0 22 -8 40 -25 56 -27 25 -20 40 21 40 23 0 64 34 64 53 0 35 -27 51
-80 49 -65 -3 -63 13 6 49 27 14 51 33 52 43 5 25 -25 54 -70 68 -31 9 -44 8
-76 -6 -48 -22 -64 -49 -97 -162 -38 -135 -104 -183 -147 -108 -17 29 -17 36
-3 103 8 40 15 114 15 164 0 78 -5 107 -33 188 -45 130 -76 180 -171 275 -141
142 -287 193 -488 173z m194 -60 c116 -24 232 -104 318 -220 66 -89 96 -155
118 -258 13 -65 13 -90 3 -176 -26 -200 -27 -178 15 -219 29 -28 45 -36 74
-36 66 0 105 47 150 181 12 35 33 76 48 92 28 30 72 36 91 13 10 -12 4 -18
-28 -37 -40 -22 -69 -68 -56 -89 4 -6 30 -10 61 -9 30 1 57 0 60 -4 12 -12
-18 -37 -43 -37 -62 0 -81 -40 -38 -80 14 -13 25 -32 25 -42 0 -10 -1 -18 -2
-18 -2 1 -25 7 -53 14 -42 11 -54 11 -77 0 -16 -8 -28 -18 -28 -23 0 -15 -67
-94 -91 -106 -16 -9 -32 -10 -58 -3 -32 9 -37 8 -58 -17 -25 -28 -28 -72 -14
-170 11 -80 -5 -384 -24 -451 -19 -66 -62 -137 -88 -142 -9 -2 -43 13 -75 33
-66 40 -83 40 -162 -1 -72 -38 -95 -33 -159 35 -98 103 -107 104 -266 17 -39
-21 -107 -21 -152 1 -19 9 -48 35 -64 57 -62 90 -68 96 -108 96 -24 0 -62 -13
-104 -35 -141 -75 -175 -34 -122 149 50 171 63 258 66 436 l3 125 -48 12 c-60
15 -80 32 -95 82 -15 52 -33 65 -82 58 -48 -6 -59 9 -34 47 33 50 -9 91 -65
62 -21 -10 -30 -11 -30 -3 0 22 15 33 55 42 30 8 40 15 40 30 0 14 -8 21 -30
25 -41 7 -46 42 -10 58 24 11 29 9 56 -19 15 -17 36 -56 46 -87 30 -100 71
-140 123 -120 51 19 88 70 151 207 134 294 217 396 391 480 57 27 114 52 128
54 52 9 191 7 242 -4z"/>
<path d="M658 1589 c-10 -5 -18 -17 -18 -25 0 -13 4 -13 30 3 17 9 30 21 30
25 0 11 -21 9 -42 -3z"/>
<path d="M635 1536 c-10 -7 -16 -20 -12 -28 3 -9 0 -21 -6 -27 -13 -13 -3 -26
12 -16 6 3 11 17 11 31 0 14 7 27 15 30 16 6 21 24 7 24 -5 0 -17 -6 -27 -14z"/>
<path d="M870 1465 c-43 -45 -22 -135 34 -149 57 -14 113 38 101 93 -17 78
-87 107 -135 56z"/>
<path d="M607 1443 c-4 -3 -7 -11 -7 -17 0 -6 5 -5 12 2 6 6 9 14 7 17 -3 3
-9 2 -12 -2z"/>
<path d="M1354 1430 c-29 -12 -49 -62 -35 -89 15 -27 42 -41 79 -41 35 0 47
13 57 58 13 64 -35 99 -101 72z"/>
<path d="M686 908 c-14 -67 -37 -374 -31 -413 10 -68 27 -124 41 -136 26 -21
27 0 5 66 -17 53 -21 89 -21 193 0 70 5 169 10 221 10 95 8 129 -4 69z"/>
<path d="M1536 819 c-3 -13 -16 -73 -30 -134 -14 -60 -34 -159 -46 -220 -12
-60 -33 -134 -47 -164 -17 -38 -21 -57 -14 -64 8 -8 15 -5 26 9 18 24 55 119
55 143 0 10 16 114 35 231 20 117 33 215 31 218 -3 2 -7 -6 -10 -19z"/>
<path d="M501 396 c-7 -9 -8 -17 -2 -20 14 -9 41 4 41 20 0 18 -24 18 -39 0z"/>
<path d="M460 383 c0 -5 7 -18 15 -29 15 -18 15 -18 13 5 -3 23 -28 44 -28 24z"/>
<path d="M941 274 c0 -11 3 -14 6 -6 3 7 2 16 -1 19 -3 4 -6 -2 -5 -13z"/>
<path d="M901 254 c0 -11 3 -14 6 -6 3 7 2 16 -1 19 -3 4 -6 -2 -5 -13z"/>
<path d="M980 260 c0 -5 5 -10 11 -10 5 0 7 5 4 10 -3 6 -8 10 -11 10 -2 0 -4
-4 -4 -10z"/>
</g>
</svg>
